<svg width="17" height="16" viewBox="0 0 17 16" fill="none" xmlns="http://www.w3.org/2000/svg">
<path fill-rule="evenodd" clip-rule="evenodd" d="M12.2188 1.125C11.3385 1.125 10.625 1.83855 10.625 2.71875C10.625 3.59895 11.3385 4.3125 12.2188 4.3125C13.099 4.3125 13.8125 3.59895 13.8125 2.71875C13.8125 1.83855 13.099 1.125 12.2188 1.125ZM9.61563 2.1875C9.86175 0.97506 10.9337 0.0625 12.2188 0.0625C13.5038 0.0625 14.5758 0.97506 14.8219 2.1875H17V3.25H14.8219C14.5758 4.46244 13.5038 5.375 12.2188 5.375C10.9337 5.375 9.86175 4.46244 9.61563 3.25H0V2.1875H9.61563ZM4.78125 6.4375C3.90105 6.4375 3.1875 7.15105 3.1875 8.03125C3.1875 8.91145 3.90105 9.625 4.78125 9.625C5.66145 9.625 6.375 8.91145 6.375 8.03125C6.375 7.15105 5.66145 6.4375 4.78125 6.4375ZM2.17813 7.5C2.42425 6.28756 3.49618 5.375 4.78125 5.375C6.06632 5.375 7.13825 6.28756 7.38437 7.5H17V8.5625H7.38437C7.13825 9.77494 6.06632 10.6875 4.78125 10.6875C3.49618 10.6875 2.42425 9.77494 2.17813 8.5625H0V7.5H2.17813ZM12.2188 11.75C11.3385 11.75 10.625 12.4635 10.625 13.3438C10.625 14.224 11.3385 14.9375 12.2188 14.9375C13.099 14.9375 13.8125 14.224 13.8125 13.3438C13.8125 12.4635 13.099 11.75 12.2188 11.75ZM9.61563 12.8125C9.86175 11.6001 10.9337 10.6875 12.2188 10.6875C13.5038 10.6875 14.5758 11.6001 14.8219 12.8125H17V13.875H14.8219C14.5758 15.0874 13.5038 16 12.2188 16C10.9337 16 9.86175 15.0874 9.61563 13.875H0V12.8125H9.61563Z" fill="#ED0842"/>
</svg>
